<svg width="1600" height="900" viewBox="0 0 1600 900" fill="none" xmlns="http://www.w3.org/2000/svg">
  <rect width="1600" height="900" fill="#08111F"/>
  <rect width="1600" height="900" fill="url(#bg)"/>
  <circle cx="226" cy="198" r="204" fill="#1FC7B5" fill-opacity="0.22"/>
  <circle cx="1284" cy="166" r="238" fill="#4A78FF" fill-opacity="0.18"/>
  <circle cx="1174" cy="744" r="294" fill="#7D5BFF" fill-opacity="0.12"/>
  <g opacity="0.9">
    <rect x="164" y="188" width="1272" height="524" rx="34" fill="#101B2C" stroke="#294562"/>
    <rect x="212" y="250" width="268" height="122" rx="22" fill="#13243A" stroke="#2F587A"/>
    <rect x="514" y="250" width="870" height="54" rx="18" fill="#14263D"/>
    <rect x="514" y="324" width="770" height="54" rx="18" fill="#13253B"/>
    <rect x="212" y="408" width="1172" height="252" rx="28" fill="#0D1727" stroke="#24384E"/>
    <rect x="252" y="456" width="286" height="156" rx="20" fill="#122035"/>
    <rect x="570" y="456" width="278" height="46" rx="14" fill="#13243A"/>
    <rect x="570" y="522" width="420" height="36" rx="12" fill="#101C2F"/>
    <rect x="570" y="578" width="520" height="36" rx="12" fill="#101C2F"/>
    <rect x="1126" y="456" width="216" height="156" rx="20" fill="#122035"/>
    <rect x="120" y="120" width="220" height="44" rx="22" fill="#0F2134" stroke="#255269"/>
  </g>
  <text x="180" y="149" fill="#8BF3E3" font-family="Arial, sans-serif" font-size="20" font-weight="700" letter-spacing="0.16em">AICOYO JOURNAL</text>
  <text x="214" y="302" fill="#EAF2FF" font-family="Arial, sans-serif" font-size="40" font-weight="700">Operating Surface</text>
  <text x="214" y="348" fill="#9DB1CB" font-family="Arial, sans-serif" font-size="24">Routing, tools, and escalation designed as one system.</text>
  <defs>
    <radialGradient id="bg" cx="0" cy="0" r="1" gradientUnits="userSpaceOnUse" gradientTransform="translate(800 450) rotate(90) scale(540 960)">
      <stop stop-color="#101C2D"/>
      <stop offset="1" stop-color="#08111F"/>
    </radialGradient>
  </defs>
</svg>
