<svg width="1600" height="900" viewBox="0 0 1600 900" fill="none" xmlns="http://www.w3.org/2000/svg">
  <rect width="1600" height="900" fill="#07111E"/>
  <rect width="1600" height="900" fill="url(#bg)"/>
  <circle cx="1368" cy="170" r="242" fill="#5EEAD4" fill-opacity="0.17"/>
  <circle cx="320" cy="748" r="260" fill="#5B8CFF" fill-opacity="0.16"/>
  <g opacity="0.96">
    <rect x="168" y="180" width="1264" height="540" rx="34" fill="#0F1B2D" stroke="#243D59"/>
    <rect x="242" y="262" width="1116" height="92" rx="24" fill="#12233A"/>
    <rect x="242" y="400" width="300" height="220" rx="24" fill="#112138" stroke="#2B536F"/>
    <rect x="650" y="400" width="300" height="220" rx="24" fill="#112138" stroke="#2B536F"/>
    <rect x="1058" y="400" width="224" height="220" rx="24" fill="#112138" stroke="#2B536F"/>
    <path d="M542 510H650" stroke="#7EEBDF" stroke-width="14" stroke-linecap="round"/>
    <path d="M950 510H1058" stroke="#7EEBDF" stroke-width="14" stroke-linecap="round"/>
    <circle cx="590" cy="510" r="14" fill="#7EEBDF"/>
    <circle cx="1004" cy="510" r="14" fill="#7EEBDF"/>
    <rect x="120" y="120" width="248" height="44" rx="22" fill="#102236" stroke="#27576B"/>
  </g>
  <text x="178" y="149" fill="#8BF3E3" font-family="Arial, sans-serif" font-size="20" font-weight="700" letter-spacing="0.16em">AICOYO JOURNAL</text>
  <text x="266" y="320" fill="#ECF3FF" font-family="Arial, sans-serif" font-size="42" font-weight="700">Tool-Driven Agent Loop</text>
  <text x="266" y="370" fill="#A0B5D0" font-family="Arial, sans-serif" font-size="24">Reasoning, execution, and guardrails remain visible end to end.</text>
  <defs>
    <radialGradient id="bg" cx="0" cy="0" r="1" gradientUnits="userSpaceOnUse" gradientTransform="translate(800 450) rotate(90) scale(560 980)">
      <stop stop-color="#111D2F"/>
      <stop offset="1" stop-color="#07111E"/>
    </radialGradient>
  </defs>
</svg>
